<svg xmlns="http://www.w3.org/2000/svg" xmlns:xlink="http://www.w3.org/1999/xlink" width="510.224" height="640.231" viewBox="0 0 510.224 640.231">
  <defs>
    <linearGradient id="linear-gradient" x1="0.186" y1="0.931" x2="0.722" y2="0.317" gradientUnits="objectBoundingBox">
      <stop offset="0" stop-color="#532e11"/>
      <stop offset="1" stop-color="#966d47"/>
    </linearGradient>
  </defs>
  <path id="blob" d="M308.277,132.29c39.19,46.106,88.369,59.169,122.18,94.516,34.579,34.579,53.79,91.443,46.105,146.769-6.916,56.1-40.727,110.653-89.137,152.148-48.411,40.727-110.653,68.39-175.969,72.232-65.316,3.074-132.938-17.674-163.675-64.548C17.813,486.534,24.728,413.533,13.971,352.059,3.981,291.354-23.682,242.943-30.6,182.237-36.746,121.532-22.914,48.531,21.655,3.962s118.337-61.474,169.054-29.2C241.424,6.268,269.856,85.416,308.277,132.29Z" transform="translate(31.98 41.979)" fill="url(#linear-gradient)"/>
</svg>
