<?xml version="1.0" encoding="utf-8"?>
<!-- Generator: Adobe Illustrator 27.5.0, SVG Export Plug-In . SVG Version: 6.00 Build 0)  -->
<svg version="1.1" id="Layer_1" xmlns="http://www.w3.org/2000/svg" xmlns:xlink="http://www.w3.org/1999/xlink" x="0px" y="0px"
	 viewBox="0 0 100 100" style="enable-background:new 0 0 100 100;" xml:space="preserve">
<style type="text/css">
	.st0{fill:#DDA15E;}
	.st1{fill:none;stroke:#BC6C25;}
</style>
<path class="st0" d="M76.5,59.5c0.3,6.3-2,12.5-7,18.5s-11.7,9.5-20,10.5s-17-0.3-26-4s-12.2-10.3-9.5-20s2.8-19.2,0.5-28.5
	S15,19.2,23,13.5S39.2,7.3,47.5,12s17.2,7.5,26.5,8.5s12,6.2,8,15.5S76.2,53.2,76.5,59.5z"/>
<path class="st1" d="M73.5,58.8c0.3,6.3-2,12.5-7,18.5s-11.7,9.5-20,10.5s-17-0.3-26-4S8.3,73.5,11,63.8s2.8-19.2,0.5-28.5
	S12,18.5,20,12.8s16.2-6.2,24.5-1.5s17.2,7.5,26.5,8.5s12,6.2,8,15.5S73.1,52.5,73.5,58.8z"/>
</svg>
