<?xml version="1.0" encoding="utf-8"?>
<!-- Generator: Adobe Illustrator 27.5.0, SVG Export Plug-In . SVG Version: 6.00 Build 0)  -->
<svg version="1.1" id="Layer_1" xmlns="http://www.w3.org/2000/svg" xmlns:xlink="http://www.w3.org/1999/xlink" x="0px" y="0px"
	 viewBox="0 0 5392.3 2385.6" style="enable-background:new 0 0 5392.3 2385.6;" xml:space="preserve">
<style type="text/css">
	.st0{fill-rule:evenodd;clip-rule:evenodd;fill:#EA3118;}
</style>
<g>
	<g>
		<path class="st0" d="M952.6,1542.7c0,79-79,199-199,199s-199-118.5-199-199c0-79,79-199,199-199S952.6,1422.7,952.6,1542.7z"/>
		<path class="st0" d="M79,2256.8c-79,0-79-159.5-79-238.5C39.5,1582.2,515.1,353.1,872.1,154c199-79,278,39.5,317.5,199
			c39.5,79,39.5,278,39.5,436.1c39.5,317.5,158,793.1,554.6,872.1c317.5,39.5,992.2-199,1308.2-278
			c674.6-199,1467.7-238.5,2142.3,118.5c118.5,79,118.5,79,158,118.5c-79,0-79,0-199-39.5c-674.6-238.5-1229.2-199-1903.8,0
			c-396.6,79-952.6,357.1-1349.2,396.6c-832.6,39.5-952.6-793.1-992.2-1428.2c0-39.5,0-39.5,0-79c-36.5,80.5-194.5,238.5-234,319.1
			C554.6,986.6,0,2018.3,79,2256.8L79,2256.8L79,2256.8z M1031.7,432.1L1031.7,432.1L1031.7,432.1L1031.7,432.1z"/>
	</g>
</g>
</svg>
