<?xml version="1.0" encoding="utf-8"?>
<!-- Generator: Adobe Illustrator 27.5.0, SVG Export Plug-In . SVG Version: 6.00 Build 0)  -->
<svg version="1.1" id="Layer_1" xmlns="http://www.w3.org/2000/svg" xmlns:xlink="http://www.w3.org/1999/xlink" x="0px" y="0px"
	 viewBox="0 0 16.6 10.4" style="enable-background:new 0 0 16.6 10.4;" xml:space="preserve">
<style type="text/css">
	.st0{fill-rule:evenodd;clip-rule:evenodd;fill:#EA3118;}
	.st1{enable-background:new    ;}
</style>
<g>
	<g>
		<path class="st0" d="M3.9,5.7c0,0.2-0.2,0.5-0.5,0.5S2.9,5.9,2.9,5.7s0.2-0.5,0.5-0.5S3.9,5.4,3.9,5.7z"/>
		<path class="st0" d="M1.7,7.5c-0.2,0-0.2-0.4-0.2-0.6c0.1-1.1,1.3-4.2,2.2-4.7C4.2,2,4.4,2.3,4.5,2.7c0.1,0.2,0.1,0.7,0.1,1.1
			C4.7,4.6,5,5.8,6,6c0.8,0.1,2.5-0.5,3.3-0.7c1.7-0.5,3.7-0.6,5.4,0.3C15,5.8,15,5.8,15.1,5.9c-0.2,0-0.2,0-0.5-0.1
			c-1.7-0.6-3.1-0.5-4.8,0c-1,0.2-2.4,0.9-3.4,1C4.3,6.9,4,4.8,3.9,3.2c0-0.1,0-0.1,0-0.2C3.8,3.2,3.4,3.6,3.3,3.8
			C2.9,4.3,1.5,6.9,1.7,7.5L1.7,7.5L1.7,7.5z M4.1,2.9L4.1,2.9L4.1,2.9L4.1,2.9z"/>
	</g>
	<g class="st1">
		<path d="M5.5,7.9L5.5,7.9c-0.1,0-0.2,0-0.2-0.1c0-0.1-0.1,0-0.1-0.1V7.6V7.6c0,0,0-0.1,0.1-0.1l0.1-0.1h0.1h0.2v0.1H5.5
			c0,0,0,0-0.1,0c0,0,0,0-0.1,0c0,0,0,0,0,0.1c0,0,0,0,0,0.1c0,0.1,0,0,0,0.1l0,0c0,0,0,0,0.1,0c0,0,0,0,0.1,0h0.2v0.2
			C5.8,7.9,5.5,7.9,5.5,7.9z"/>
		<path d="M6.4,7.9L6.4,7.9c-0.1,0-0.2,0-0.2-0.1c0-0.1-0.1,0-0.2-0.1V7.6V7.6c0,0,0-0.1,0.1-0.1l0.1-0.1h0.1h0.1h0.1
			c0,0,0.1,0,0.1,0.1l0.1,0.1v0.1v0.1c0,0,0,0.1-0.1,0.1L6.4,7.9C6.5,7.9,6.5,7.9,6.4,7.9L6.4,7.9z M6.5,7.7L6.5,7.7
			C6.6,7.7,6.6,7.7,6.5,7.7L6.5,7.7C6.6,7.7,6.6,7.7,6.5,7.7c0.1-0.2,0.1-0.1,0.1-0.2c0,0,0,0,0-0.1c0,0,0,0-0.1,0c0,0,0,0-0.1,0
			H6.4c0,0,0,0-0.1,0c0,0,0,0-0.1,0c0,0,0,0,0,0.1c0,0,0,0,0,0.1s0,0,0,0.1l0,0l0,0c0,0,0,0,0.1,0H6.5z"/>
		<path d="M7.7,7.9L7.6,7.6L7.5,7.9c0,0,0,0.1-0.1,0.1h0c0,0-0.1,0-0.1-0.1L7.3,7.6L7.2,7.9H7l0.1-0.5c0,0,0,0,0-0.1c0,0,0,0,0.1,0
			h0.1c0,0,0.1,0,0.1,0.1l0.1,0.3l0.1-0.3c0,0,0-0.1,0.1-0.1h0.1c0,0,0,0,0.1,0c0,0,0,0,0,0.1l0.1,0.5H7.7z"/>
		<path d="M8.3,7.8V7.6h0.2c0,0,0,0,0.1,0s0,0,0-0.1s0,0,0-0.1s0,0-0.1,0H8.3L8.3,7.8L8.2,7.9V7.4h0.3h0.1h0.1c0,0,0,0,0.1,0.1
			c0.1,0.1,0,0.1,0,0.1v0.1c0,0,0,0.1-0.1,0.1s-0.1,0-0.1,0H8.5L8.3,7.8L8.3,7.8z"/>
		<path d="M9.4,7.9L9.4,7.9L9.2,7.8l0.1-0.1h0.2L9.2,7.6L9.1,7.9H8.9l0.2-0.5c0,0,0,0,0.1,0l0,0h0.1l0.2,0.5H9.4z"/>
		<path d="M10.4,7.9L10.4,7.9C10.3,7.9,10.3,7.9,10.4,7.9l-0.3-0.3v0.3H9.9V7.4c0,0,0-0.1,0.1-0.1l0,0l0,0l0,0l0,0l0,0l0.2,0.2V7.4
			h0.2L10.4,7.9C10.5,7.9,10.5,7.9,10.4,7.9L10.4,7.9z"/>
		<path d="M11,7.9V7.7l-0.2-0.3h0.2l0.2,0.2l0.2-0.2h0.2l-0.2,0.3v0.2C11.1,7.9,11,7.9,11,7.9z"/>
	</g>
</g>
</svg>
