<?xml version="1.0" encoding="UTF-8"?>
<svg id="Layer_1" data-name="Layer 1" xmlns="http://www.w3.org/2000/svg" viewBox="0 0 2064.85 724.31">
  <defs>
    <style>
      .cls-1 {
        fill: #74992e;
      }

      .cls-1, .cls-2 {
        fill-rule: evenodd;
      }

      .cls-2 {
        fill: #532e11;
      }
    </style>
  </defs>
  <path class="cls-1" d="m236.34,497.19h0v-1.42h.09l13.76-216.31,13.41,210.73c-12.02,1.34-21.45,3.36-27.26,7h0Z"/>
  <path class="cls-1" d="m90.49,405.97l93.95,12.31c-48.71,63.2-137.82,37.7-175.7-16,42.55-50.07,133.6-67.46,176.42-.12l-94.67,3.81h0Zm319.42,0l-93.97,12.32c48.72,63.21,137.81,37.7,175.69-16-42.55-50.07-133.58-67.46-176.4-.12l94.68,3.8h0Zm-33.62-129.54l-67.79,55.43c69.04,25.91,126.58-37.5,130.16-98.12-57.8-18.59-137.75,12.08-138.59,85.82l76.22-43.13h0Zm-252.18.01l67.78,55.41c-69.03,25.91-126.58-37.52-130.18-98.12,57.8-18.59,137.76,12.09,138.59,85.82l-76.2-43.11h0Z"/>
  <path class="cls-1" d="m249.14,135.41l-11.46,134.06c-92.78-65.05-62.28-193.07,11.46-250.23,73.75,57.16,104.24,185.18,11.46,250.23l-11.46-134.06h0Z"/>
  <path class="cls-2" d="m456.23,476.4c-.78,113.62-93.12,205.49-206.93,205.49-105,0-191.74-78.22-205.14-179.56-.96-17.8,35.81-15.44,76.98,1.36,84.33,34.44,99.36,98.14,204.29,50.18,0,0-82.33,12.08-94.42-23.42-12.09-35.5,69.66-19.25,151.23-35.88,29.57-6.03,54.39-12.45,73.99-18.18h0Z"/>
  <path class="cls-2" d="m617.32,471.04h31.01v-136.52h52.17v-28.19h-135.34v28.19h52.16v136.52h0Zm244.84,0v-164.25h-30.78v69.32h-80.83v-69.32h-31.02v164.25h31.02v-66.26h80.83v66.26h30.78Zm151.79-30.54h-92.34v-37.13h89.06v-28.9h-89.06v-38.06h92.34v-30.07h-123.13v164.71h123.13v-30.54h0Zm212.88-113.5c-16.91-16.68-39-25.14-61.09-25.14-58.03,0-86.94,42.77-86.94,89.06,0,43.23,25.15,83.88,86.94,83.88,28.9,0,49.35-11.04,65.56-29.6v-69.32h-70.49v27.73h42.06v29.14c-12.92,10.34-24.21,13.16-37.13,13.16-40.88,0-56.62-27.96-56.62-54.98,0-33.84,21.38-60.62,56.62-60.62,14.33,0,30.79,5.87,41.83,16.45l19.27-19.74h0Zm160.48,144.04h33.84l-73.78-164.71h-33.84l-73.78,164.71h33.6l14.1-31.01h86l13.86,31.01h0Zm-26.32-59.92h-61.09l30.54-70.18,30.55,70.18h0Zm219.93,57.8l-49.82-56.15c31.25-6.34,41.59-29.14,41.59-51.82,0-28.54-20.44-54.4-59.21-54.62-26.09.23-52.17,0-78.25,0v164.71h31.02v-54.98h29.84l47.94,54.98h36.89v-2.12h0Zm-67.44-133.7c19.5,0,28.19,13.2,28.19,26.43s-8.45,26.43-28.19,26.43h-47.23v-52.87h47.23Zm142.62-28.9h-64.61v164.71h64.61c57.56,0,82.95-42.06,82.24-83.77-.71-40.76-25.85-80.94-82.24-80.94h0Zm-33.84,29.37h33.84c35.72,0,50.75,25.65,51.46,51.35.71,26.86-14.1,54.15-51.46,54.15h-33.84v-105.5h0Zm259.17,104.8h-92.34v-37.13h89.06v-28.9h-89.06v-38.06h92.34v-30.07h-123.13v164.71h123.13v-30.54h0Zm136.98-32.04l-80.59-102.13h-25.14v164.71h31.01v-111.06l86.47,111.06h19.27v-164.71h-31.02v102.13h0Z"/>
  <path class="cls-2" d="m806.01,648.12c-6.51,0-11.07-2.97-13.68-8.9-.72-1.59-1.85-5.1-3.36-10.52-1.52-5.43-2.28-11.04-2.28-16.82,0-7.38,1.59-13.53,4.78-18.46,1.59-2.31,3.33-3.47,5.21-3.47,1.74,0,3.25,1.09,4.56,3.26,2.17,3.76,3.25,7.96,3.25,12.59s-.94,8.68-2.82,12.59c-.73,1.74-1.31,2.61-1.74,2.61-.57,0-1.16-1.88-1.74-5.65,1.45-3.19,2.17-6.59,2.17-10.2,0-3.04-.47-5.71-1.41-8.03-.94-2.32-2.21-3.62-3.8-3.91-2.32,5.35-3.47,11.43-3.47,18.24,0,5.35.73,10.49,2.17,15.41,1.45,4.92,3.15,8.9,5.1,11.94,1.96,3.04,3.58,4.63,4.88,4.77h.44c1.01,0,1.74-.18,2.17-.54.44-.37.94-1.05,1.52-2.07,2.46-4.19,3.69-9.48,3.69-15.84.15-3.62.21-9.12.21-16.5,0-9.98-.07-17.44-.21-22.36,0-1.45-.11-3.08-.33-4.88-.22-1.81-.33-3.15-.33-4.02-.29-2.89-.43-4.77-.43-5.64.15-3.76-.07-9.55-.65-17.37-.15-1.45-.29-3.22-.44-5.32-.15-2.1-.21-4.59-.21-7.48,0-2.32-1.23-3.69-3.69-4.12-8.68-2.17-15.7-3.26-21.05-3.26-1.16,0-3.04.15-5.64.44-5.5.72-8.76,3.33-9.77,7.81-.15,1.16-.44,1.74-.87,1.74s-.65-.72-.65-2.17c0-2.46.87-4.78,2.61-6.95,1.45-1.59,3.11-2.71,4.99-3.36,1.88-.65,4.27-1.12,7.17-1.41.87-.15,2.24-.21,4.12-.21,3.04,0,6.18.29,9.44.86,3.26.58,5.24.94,5.97,1.09,4.48.73,9.41,1.81,14.76,3.26,4.92,1.16,9.33,1.74,13.24,1.74,7.96,0,16.13-1.81,24.53-5.43,3.47-1.45,6.58-4.56,9.33-9.33.44,2.9.07,5.1-1.09,6.62-1.16,1.52-2.82,2.93-5,4.23-8.83,5.36-17.8,8.03-26.92,8.03-2.31.14-6.07.21-11.28.21l2.82,30.18,2.17,14.11c1.02,8.25,1.52,19.03,1.52,32.34,0,7.38-1.23,13.53-3.69,18.45-1.88,3.76-4.05,6.66-6.52,8.69-2.46,2.03-5.71,3.04-9.77,3.04h0Zm82.71-10.42c-2.32-.58-4.05-1.85-5.22-3.8-1.16-1.96-2.1-4.38-2.82-7.28-.87-2.89-1.45-7.37-1.74-13.46l-.43-6.08c-2.03,1.31-3.58,2.9-4.67,4.78-1.09,1.88-1.77,3.11-2.06,3.69-1.88,3.33-4.34,7.17-7.38,11.5-2.6,3.47-6.08,5.21-10.42,5.21-4.05,0-7.35-.98-9.88-2.93-2.53-1.96-4.09-4.67-4.67-8.14-.43-3.04-.65-6-.65-8.9,0-10.13,2.75-18.89,8.25-26.26,4.77-6.37,10.34-9.55,16.71-9.55,5.79,0,11.21,2.97,16.28,8.9.29.29.66.84,1.09,1.63.44.8.87,1.63,1.31,2.5,2.02-5.5,3.18-8.47,3.47-8.9,1.01-1.74,2.68-2.32,4.99-1.74.87.29,1.41.73,1.63,1.3.21.58.32,1.45.32,2.61.15,3.04-.22,7.45-1.09,13.24-.58,3.04-.94,5.5-1.09,7.38-.29,4.05-.44,8.18-.44,12.37,0,10.14,1.09,15.2,3.26,15.2.58,0,1.3-.51,2.17-1.52,3.04-3.9,5.65-8.32,7.81-13.24,2.17-4.92,4.49-10.85,6.95-17.8.29-.86.66-1.85,1.09-2.93.44-1.09.87-2.21,1.31-3.37.28-.87.75-2.17,1.41-3.91.65-1.74,1.27-3.18,1.84-4.34.43-1.16,1.31-1.67,2.61-1.52.86.29,1.3.8,1.3,1.52,0,.57-.15,1.16-.44,1.74-5.21,13.31-9.19,23.3-11.94,29.96-2.6,5.21-4.19,8.32-4.77,9.33l-3.26,6.3c-1.16,2.03-2.71,3.66-4.66,4.88-1.96,1.23-4.02,1.78-6.18,1.63h0Zm-29.53-15.63c6.66-6.66,12.81-14.69,18.45-24.1.15-.28.58-1.04,1.3-2.28.73-1.23,1.09-2.21,1.09-2.93s-.28-1.51-.87-2.39c-.58-.86-1.38-1.81-2.39-2.82-1.88-1.88-2.82-2.82-2.82-2.82-3.04-3.18-5.94-4.77-8.68-4.77-3.19,0-6.15,2.39-8.9,7.16-1.74,3.19-2.97,6.55-3.69,10.1-.73,3.54-1.23,7.63-1.52,12.26,0,4.63.29,8.11.86,10.43.87,3.18,1.96,4.77,3.26,4.77.87,0,2.17-.86,3.91-2.61h0Zm77.07,82.28c-6.08-.72-9.84-4.7-11.29-11.94-.72-4.05-1.09-7.6-1.09-10.63,0-9.12,2.39-18.24,7.17-27.35,4.34-7.96,9.41-14.83,15.19-20.62,2.32-2.32,3.47-4.63,3.47-6.95-.14-5.94-.21-14.69-.21-26.27-.86-.29-1.52-.44-1.95-.44-1.45,2.9-4.05,6.95-7.82,12.15l-4.56,6.52c-.73.86-1.67,2.17-2.82,3.91-3.47,4.05-7.16,6.07-11.07,6.07-.58,0-1.59-.15-3.04-.44-2.89-.72-5.17-2.1-6.84-4.12-1.67-2.03-2.71-4.48-3.15-7.38-.44-2.89-.65-5.64-.65-8.25,0-8.11,2.03-15.41,6.08-21.92,2.02-3.04,4.63-5.4,7.81-7.06,3.18-1.67,6.52-2.5,9.99-2.5,4.05,0,8.1,1.23,12.15,3.69.72.44,2.6,1.81,5.65,4.13,1.01-.73,1.66-1.88,1.95-3.47.29-1.6.58-2.68.87-3.26,1.16-1.45,2.24-2.17,3.25-2.17,1.74,0,2.75,1.02,3.04,3.04.87,6.66,1.37,11.73,1.51,15.2v23.01c3.47-2.32,7.13-5.71,10.97-10.2,3.83-4.48,6.77-9.48,8.79-14.98.29-.87.76-2.17,1.41-3.91.65-1.74,1.27-3.18,1.84-4.34.44-1.16,1.31-1.67,2.61-1.52.86.29,1.3.8,1.3,1.52,0,.57-.15,1.16-.44,1.74l-4.12,11.07c-1.88,4.05-4.88,8.94-9.01,14.65-4.12,5.72-8.43,9.8-12.92,12.27,0,2.17.21,5.64.65,10.42.58,9.84.87,17.23.87,22.14,0,7.38-.37,13.68-1.09,18.89-.58,5.36-1.31,9.73-2.17,13.13-.87,3.4-2.39,6.62-4.56,9.66-3.18,4.48-7.82,6.72-13.89,6.72-1.74,0-3.04-.07-3.91-.21h0Zm-13.68-81.62c10.56-8.69,18.6-18.38,24.1-29.09.29-.44.44-1.09.44-1.96,0-1.3-.51-2.6-1.52-3.9-2.03-2.9-4.7-4.99-8.03-6.3-1.88-.73-3.54-1.09-4.99-1.09-3.04,0-5.49,1.66-7.37,4.99-3.76,6.66-5.65,13.61-5.65,20.84,0,5.5,1.01,11,3.04,16.5h0Zm10.42,74.46c2.03,2.6,3.98,3.9,5.86,3.9,2.03,0,3.98-1.3,5.87-3.9,2.03-3.04,3.4-6.52,4.12-10.43,1.45-7.38,2.17-15.34,2.17-23.87,0-7.96-.58-16.79-1.74-26.49-7.24,7.67-12.59,15.46-16.06,23.34-3.47,7.89-4.93,16.39-4.34,25.51.43,4.92,1.81,8.9,4.12,11.94h0Zm64.69-59.92c-2.75,0-5.49-.91-8.25-2.71-2.75-1.81-4.63-4.59-5.64-8.36-1.45-5.5-2.5-11.14-3.15-16.93-.65-5.79-.97-10.63-.97-14.54,0-19.54,1.52-38.28,4.56-56.22,1.59-8.97,4.63-16.94,9.12-23.88,2.6-3.91,5.79-5.86,9.55-5.86,1.88,0,3.69.62,5.42,1.84,1.74,1.23,3.18,3,4.34,5.32,1.74,3.47,2.6,7.45,2.6,11.94,0,3.76-.44,7.38-1.3,10.85-3.18,13.46-8.68,24.97-16.5,34.51-3.91,4.63-5.79,9.99-5.64,16.06.15,1.88.22,4.63.22,8.25,0,9.55.65,17.15,1.95,22.79,1.74,7.53,3.69,11.29,5.86,11.29,1.02,0,2.03-.72,3.04-2.17,3.04-3.9,5.64-8.32,7.81-13.24,2.17-4.92,4.49-10.85,6.95-17.8.29-.86.65-1.85,1.09-2.93.44-1.09.87-2.21,1.3-3.37.29-.87.76-2.17,1.41-3.91.66-1.74,1.27-3.18,1.85-4.34.44-1.16,1.3-1.67,2.61-1.52.87.29,1.3.8,1.3,1.52,0,.57-.15,1.16-.44,1.74-5.21,13.31-9.19,23.3-11.94,29.96-2.6,5.21-4.19,8.32-4.77,9.33l-3.26,6.3c-2.31,4.05-5.35,6.08-9.12,6.08h0Zm-5.21-64.69c1.88-1.59,3.33-3.11,4.34-4.56,1.01-1.45,2.17-3.33,3.47-5.65,3.62-6.51,6.36-12.48,8.25-17.91,1.88-5.42,2.82-11.03,2.82-16.82s-1.88-10.49-5.64-14.55c-.87-1.01-1.74-1.51-2.6-1.51-1.02,0-1.88.65-2.61,1.95-.87,1.74-1.37,2.97-1.51,3.69-4.05,15.34-6.23,33.79-6.52,55.36h0Zm36.9-12.15c-1.88,0-3.4-.47-4.56-1.41-1.16-.94-1.74-2.21-1.74-3.8,0-1.45.58-2.68,1.74-3.69,1.16-1.01,2.61-1.51,4.34-1.51,3.47,0,5.21,1.51,5.21,4.56-.29,3.76-1.95,5.71-4.99,5.86h0Zm-1.51,76.84c-1.74-.29-3.37-1.12-4.88-2.5-1.52-1.38-2.79-3.29-3.81-5.75-1.01-2.61-1.51-4.93-1.51-6.95l-.22-8.68v-4.99c0-.87.08-3.98.22-9.34.15-5.35.72-10.49,1.74-15.41l1.52-6.95c.57-2.6,2.39-3.76,5.42-3.47,1.45,0,2.53.44,3.26,1.3.72.87,1.01,2.03.87,3.48l-1.74,31.91c-.29,4.93-.44,8.68-.44,11.29-.15,2.03-.04,3.87.32,5.53.37,1.67,1.13,3.44,2.28,5.32.58,0,1.09-.26,1.52-.76.43-.5.86-1.12,1.3-1.85,3.04-3.9,5.65-8.32,7.82-13.24,2.17-4.92,4.48-10.85,6.95-17.8.28-.86.65-1.85,1.09-2.93.43-1.09.86-2.21,1.3-3.37.29-.87.76-2.17,1.41-3.91.65-1.74,1.27-3.18,1.85-4.34.43-1.16,1.3-1.67,2.6-1.52.87.29,1.3.8,1.3,1.52,0,.57-.15,1.16-.43,1.74-5.22,13.31-9.19,23.3-11.94,29.96-2.61,5.21-4.2,8.32-4.78,9.33l-3.25,6.3c-2.32,4.2-5.58,6.23-9.77,6.08h0Zm70.76,0c-5.35,0-8.75-2.75-10.2-8.25-1.31-5.36-1.81-10.93-1.52-16.72.73-7.81,1.16-15.63,1.3-23.44l.22-3.25c0-3.33-.94-5.36-2.82-6.08-1.31-.44-2.46-.29-3.47.44-1.02.73-1.92,1.67-2.72,2.82s-1.41,1.95-1.84,2.39c-6.66,8.54-10.85,18.3-12.59,29.3-.14.58-.22,1.52-.22,2.82,0,1.88.22,4.05.65,6.52.29,2.02.44,3.69.44,4.99l.22,3.04c0,1.45-.4,2.53-1.2,3.25-.8.73-2.35,1.09-4.67,1.09-3.91,0-6.15-2.03-6.72-6.08-1.02-7.09-1.74-13.02-2.17-17.8-.44-4.77-.58-9.55-.44-14.33l.65-11.72c0-1.16.33-2.14.98-2.93.65-.8,1.56-1.27,2.72-1.41h1.08c2.17,0,3.76,1.09,4.78,3.26.87,2.03,1.45,5.57,1.74,10.64,0,1.59.15,3.83.44,6.72l2.39-4.34c1.59-2.61,3.18-5.43,4.77-8.47,2.46-4.05,5.14-7.38,8.03-9.98,2.46-2.32,5.06-3.47,7.82-3.47,2.03,0,3.83.65,5.42,1.95,1.59,1.3,2.9,3.11,3.91,5.42,1.3,3.19,2.17,6.44,2.61,9.77.43,3.33.8,7.46,1.09,12.38.14,2.32.21,5.86.21,10.64.14,1.59.21,3.98.21,7.16,0,4.63.73,6.95,2.17,6.95.58,0,1.23-.36,1.95-1.09,3.04-3.9,5.65-8.32,7.82-13.24,2.17-4.92,4.49-10.85,6.95-17.8.29-.86.65-1.85,1.09-2.93.44-1.09.87-2.21,1.3-3.37.29-.87.76-2.17,1.41-3.91.66-1.74,1.27-3.18,1.85-4.34.44-1.16,1.3-1.67,2.61-1.52.86.29,1.3.8,1.3,1.52,0,.57-.14,1.16-.44,1.74-5.21,13.31-9.19,23.3-11.94,29.96-2.6,5.21-4.19,8.32-4.77,9.33l-3.26,6.3c-2.31,4.05-5.35,6.08-9.12,6.08h0Zm31.91.44c-4.78,0-8.5-1.38-11.18-4.12-2.68-2.75-4.31-6.37-4.88-10.85-.29-3.76-.44-6.37-.44-7.82,0-5.94.86-11.5,2.6-16.71,1.74-5.21,4.41-10.56,8.03-16.06,3.91-5.64,9.05-8.47,15.41-8.47,2.9,0,5.14.73,6.73,2.17,1.59,1.45,2.39,3.47,2.39,6.07,0,1.02-.07,1.81-.21,2.39-1.16,7.23-4.77,14.25-10.85,21.05-2.89,3.76-5.29,6.3-7.17,7.6-3.33,2.17-4.99,5.13-4.99,8.9,0,1.88.36,4.12,1.09,6.73.43,1.59,1.95,2.39,4.56,2.39,2.31,0,4.77-.58,7.37-1.74,2.61-1.16,4.7-2.61,6.3-4.34,2.9-3.62,5.14-7.2,6.73-10.74,1.59-3.54,3.4-8.36,5.43-14.44,1.59-4.34,2.53-6.87,2.82-7.6.28-.87.75-2.17,1.41-3.91.65-1.74,1.27-3.18,1.84-4.34.44-1.16,1.31-1.67,2.61-1.52.87.29,1.3.8,1.3,1.52,0,.57-.15,1.16-.44,1.74-5.21,13.31-9.19,23.3-11.93,29.96-2.17,4.92-4.13,8.61-5.87,11.07-1.59,2.46-4.09,4.93-7.49,7.38-3.4,2.46-7.13,3.69-11.18,3.69h0Zm-4.78-25.4c8.54-6.36,14.76-14.33,18.67-23.87.58-1.31.87-2.9.87-4.78,0-1.45-.07-2.53-.21-3.25-.14-1.31-.65-2.32-1.52-3.04-.87-.72-1.88-1.08-3.04-1.08-.87,0-1.74.21-2.6.65-2.03.86-3.48,2.31-4.34,4.34-3.33,8.11-5.94,18.45-7.82,31.04h0Zm120.92,44.5c-2.75-2.17-4.12-5-4.12-8.47,0-1.45.21-2.97.65-4.56,3.18-10.85,9.41-18.6,18.67-23.22,2.02-1.02,3.43-2.14,4.23-3.37.8-1.22,1.12-2.86.98-4.88-.14-1.59-.22-3.51-.22-5.75v-4.88c-1.3.58-2.24,1.38-2.82,2.39-.57,1.01-.94,1.67-1.08,1.95-4.05,6.37-8.54,11.8-13.46,16.28-3.04,2.89-7.31,4.34-12.8,4.34-3.19,0-6.23-.61-9.12-1.84-2.9-1.23-5.14-3-6.73-5.32-3.91-5.64-5.94-11.65-6.08-18.02-.14-2.17-.21-5.42-.21-9.77,0-9.26.58-17.58,1.74-24.96,2.46-14.91,10.2-26.2,23.23-33.86,3.04-1.74,6.22-2.61,9.55-2.61s6.55.87,9.66,2.61c3.11,1.74,5.6,4.12,7.49,7.16,1.16,1.88,1.74,3.62,1.74,5.21,0,1.45-.5,2.9-1.52,4.34-1.6-5.06-3.55-8.83-5.87-11.29-3.47-3.91-7.02-5.86-10.63-5.86-3.33,0-6.52,1.81-9.55,5.42-6.08,7.38-10.06,16.28-11.94,26.7-2.03,10.71-2.97,20.91-2.82,30.61,0,8.4,2.03,15.99,6.08,22.79,2.03,3.62,4.41,5.43,7.16,5.43,2.17,0,4.28-.94,6.3-2.82,12.59-10.13,19.76-22.36,21.49-36.69.15-.44.26-1.16.33-2.17.07-1.01.36-1.81.87-2.39.5-.58,1.34-.87,2.49-.87,3.19,0,5.14,1.59,5.87,4.78,2.46,9.84,3.69,19.46,3.69,28.87s-1.23,17.59-3.69,25.83c-2.46,7.82-7.82,14.11-16.06,18.89-2.61,1.45-4.99,2.17-7.17,2.17-2.32,0-4.41-.73-6.29-2.17h0Zm5.43-1.74c1.01,0,1.92-.33,2.71-.98.8-.65,1.48-1.3,2.06-1.96.58-.65.94-1.04,1.09-1.19,3.33-3.76,5.57-8.03,6.73-12.81,1.16-4.78,1.88-10.64,2.17-17.59-10.42,5.79-17,13.75-19.75,23.88-.15.43-.22,1.08-.22,1.95,0,2.32.51,4.34,1.52,6.08,1.02,1.74,2.24,2.6,3.69,2.6h0Zm49.93-18.67c-3.62-1.01-6.44-2.93-8.47-5.75s-3.25-6.26-3.69-10.31c-.44-2.89-.65-5.64-.65-8.25,0-10.42,2.97-19.9,8.9-28.44,2.9-3.76,5.87-5.86,8.9-6.29l1.3-.21c2.46,0,3.33,1.38,2.61,4.12-.29,1.02-.87,2.53-1.74,4.56-3.33,8.25-4.99,17.59-4.99,28,0,3.18.07,5.64.21,7.38,0,.29.04.73.11,1.3.07.58.26,1.23.54,1.96,1.31,4.92,3.4,7.38,6.3,7.38,2.03,0,4.28-1.23,6.73-3.69,5.5-5.36,9.91-13.24,13.24-23.66l.22-1.09c0-.87-.4-1.56-1.2-2.06-.8-.5-1.34-.84-1.63-.97-6.23-4.05-10.64-10.2-13.24-18.46-.73-2.46-1.09-4.7-1.09-6.72,0-1.16.29-3.19.86-6.08.87-2.61,1.67-4.52,2.39-5.76.73-1.23,2.1-1.99,4.13-2.28.57-.15,1.37-.22,2.39-.22,3.47,0,6.36,1.59,8.68,4.77,3.62,4.77,5.42,11.5,5.42,20.19,0,4.49-.43,9.12-1.3,13.89,1.88.58,3.69.87,5.43.87,3.9,0,6.95-1.59,9.12-4.77.57-.87,1.74-3.47,3.47-7.82l1.74-4.12c.43-1.16,1.3-1.67,2.6-1.52.87.29,1.3.8,1.3,1.52,0,.57-.14,1.16-.43,1.74-.29.72-.98,2.46-2.06,5.21-1.09,2.75-2.14,4.92-3.15,6.51-1.16,1.88-2.9,3.55-5.21,5-2.32,1.45-4.99,2.17-8.04,2.17-2.02,0-3.9-.29-5.64-.87-1.16,3.76-3,8.25-5.54,13.46-2.53,5.21-4.88,9.33-7.05,12.37-3.62,5.21-8.61,7.82-14.98,7.82-2.46,0-4.63-.29-6.51-.87h0Zm30.83-39.5c.86-4.49,1.3-9.84,1.3-16.07-.15-5.93-2.31-10.92-6.51-14.98-1.3-1.59-2.46-2.39-3.47-2.39-1.3,0-2.32,1.23-3.04,3.69-.72,2.17-1.08,4.34-1.08,6.51,0,4.34,1.16,8.65,3.47,12.92,2.31,4.27,5.42,7.71,9.33,10.32h0Zm30.18,40.81c-4.78,0-8.5-1.38-11.18-4.12-2.68-2.75-4.31-6.37-4.88-10.85-.29-3.76-.44-6.37-.44-7.82,0-5.94.86-11.5,2.6-16.71,1.74-5.21,4.41-10.56,8.03-16.06,3.91-5.64,9.05-8.47,15.41-8.47,2.9,0,5.14.73,6.73,2.17,1.59,1.45,2.39,3.47,2.39,6.07,0,1.02-.07,1.81-.21,2.39-1.16,7.23-4.77,14.25-10.85,21.05-2.89,3.76-5.29,6.3-7.17,7.6-3.33,2.17-4.99,5.13-4.99,8.9,0,1.88.36,4.12,1.09,6.73.43,1.59,1.95,2.39,4.56,2.39,2.31,0,4.77-.58,7.37-1.74,2.61-1.16,4.7-2.61,6.3-4.34,2.9-3.62,5.14-7.2,6.73-10.74,1.59-3.54,3.4-8.36,5.43-14.44,1.59-4.34,2.53-6.87,2.82-7.6.28-.87.75-2.17,1.41-3.91.65-1.74,1.27-3.18,1.84-4.34.44-1.16,1.31-1.67,2.61-1.52.87.29,1.3.8,1.3,1.52,0,.57-.15,1.16-.44,1.74-5.21,13.31-9.19,23.3-11.93,29.96-2.17,4.92-4.13,8.61-5.87,11.07-1.59,2.46-4.09,4.93-7.49,7.38-3.4,2.46-7.13,3.69-11.18,3.69h0Zm-4.78-25.4c8.54-6.36,14.76-14.33,18.67-23.87.58-1.31.86-2.9.86-4.78,0-1.45-.07-2.53-.21-3.25-.15-1.31-.65-2.32-1.52-3.04-.87-.72-1.88-1.08-3.04-1.08-.86,0-1.74.21-2.6.65-2.03.86-3.48,2.31-4.34,4.34-3.33,8.11-5.94,18.45-7.82,31.04h0Zm44.73,33.65c-2.61,0-4.74-.76-6.41-2.28-1.66-1.52-2.5-3.44-2.5-5.76,0-1.59.44-3.11,1.31-4.56,2.02-3.62,4.56-6.73,7.6-9.33,2.03-1.74,3.04-3.55,3.04-5.43,0-1.45-.44-2.89-1.3-4.34-3.18-6.08-5.5-10.64-6.95-13.68-1.59-3.18-2.82-5.97-3.69-8.36-.86-2.39-1.3-4.88-1.3-7.49,0-3.62,1.2-6.69,3.58-9.22,2.39-2.53,5.32-3.8,8.79-3.8,3.18,0,5.6.8,7.27,2.39,1.66,1.59,2.5,3.91,2.5,6.95,0,4.34-1.38,8.61-4.13,12.81-.72,1.16-1.08,2.17-1.08,3.04,0,1.16.43,2.31,1.3,3.47.29.28,2.32,4.05,6.07,11.28l2.39,4.56c3.47-2.31,6.98-5.53,10.52-9.66,3.55-4.12,6.34-8.94,8.36-14.44.28-.87.75-2.17,1.41-3.91.65-1.74,1.27-3.18,1.84-4.34.44-1.16,1.31-1.67,2.61-1.52.86.29,1.3.8,1.3,1.52,0,.57-.15,1.16-.44,1.74l-4.12,11.07c-1.88,4.05-4.56,8.47-8.03,13.24-3.47,4.78-7.45,8.4-11.94,10.85.44,1.45.65,3.69.65,6.73,0,2.6-.21,4.77-.65,6.51-.72,3.33-2.78,6.15-6.18,8.47-3.4,2.32-7.35,3.47-11.83,3.47h0Zm3.91-53.84c2.46-2.89,3.69-6.3,3.69-10.21,0-1.45-.07-2.53-.21-3.25-.29-1.16-.8-2.1-1.52-2.82-.73-.73-1.67-1.09-2.82-1.09-1.74,0-3.04,1.16-3.91,3.47-.43,1.01-.65,2.1-.65,3.26,0,.57.15,1.3.44,2.17.87,2.32,1.59,4.05,2.17,5.21.57,1.16,1.52,2.25,2.82,3.26h0Zm-5,49.5c.29.14.65.21,1.09.21,1.3,0,2.24-1.09,2.82-3.26,1.01-3.04,1.52-5.71,1.52-8.03,0-1.74-.15-3.04-.43-3.91-1.02.15-1.81.44-2.39.87-.57.44-1.16,1.15-1.74,2.17-1.3,1.59-2.24,2.89-2.82,3.91-.58,1.01-.87,2.24-.87,3.69.29,2.46,1.23,3.91,2.82,4.34h0Z"/>
  <path class="cls-2" d="m1565.37,673.74c-3.91,0-7.09-1.16-9.55-3.47-2.46-2.32-4.48-6.81-6.07-13.46-1.59-6.66-2.61-16.28-3.04-28.87l-1.3-35.82c-.29-1.88-.76-3.15-1.41-3.8-.65-.65-1.85-.83-3.58-.54-1.3.15-2.64.28-4.01.43-1.38.15-2.79.29-4.23.44-2.75.44-4.59.83-5.53,1.2-.94.36-1.52,1.01-1.74,1.95-.22.94-.33,2.86-.33,5.76,0,8.83-.44,15.41-1.31,19.75-.72,4.34-1.88,7.82-3.47,10.42-2.6,3.91-6.3,5.87-11.07,5.87-4.05,0-7.38-1.6-9.98-4.78-3.91-4.92-5.87-10.35-5.87-16.28,0-8.4,4.27-14.76,12.81-19.11,2.75-1.3,4.59-2.86,5.53-4.66.94-1.81,1.41-4.38,1.41-7.71,0-2.32-.15-6.08-.44-11.29-.44-5.06-.65-10.06-.65-14.98,0-4.05.21-8.03.65-11.94l.44-3.04c-3.33,2.17-5.76,4.34-7.27,6.51-1.52,2.17-2.14,4.92-1.85,8.25,0,1.59-.5,2.39-1.52,2.39-1.45-.29-2.17-1.09-2.17-2.39-.15-.73-.22-1.67-.22-2.82,0-3.76,1.3-6.73,3.91-8.9.29-.29,2.32-1.88,6.08-4.77l3.9-3.04c.29-1.01.8-1.52,1.52-1.52,1.16,0,1.95.44,2.39,1.3.58,1.02,1.09,2.53,1.52,4.56,2.89,14.62,4.63,28.15,5.21,40.59.29,2.89.58,4.7.86,5.42.29.73,1.23,1.09,2.82,1.09,1.45,0,2.75-.07,3.91-.21,1.16-.14,2.64-.32,4.45-.55,1.81-.21,3.29-.33,4.45-.33,3.18,0,4.63-1.66,4.34-4.99l-.21-7.17c0-3.33.15-8.32.44-14.98l.21-7.38c.29-5.06,1.02-12.51,2.17-22.36.29-2.17.51-3.33.65-3.47.58-2.03,1.59-3.04,3.04-3.04,1.74,0,2.82,1.01,3.26,3.04,1.01,4.92,1.52,10.13,1.52,15.63-.29,8.97-.44,15.85-.44,20.62l-.21,10.2c0,4.49.36,8.11,1.08,10.85,3.19-.44,8.61-1.16,16.28-2.17-.73,1.31-1.63,2.14-2.71,2.5-1.09.36-2.5.62-4.23.76-4.2.44-6.88,1.05-8.03,1.85-1.16.8-1.74,2.42-1.74,4.88,0,2.03.07,3.69.21,4.99,0,0,.14,3.04.44,9.12,1.45,44.14,4.41,66.21,8.9,66.21,3.47,0,5.21-2.03,5.21-6.08,0-1.01-.36-3.54-1.08-7.6-.58-2.89-.87-4.7-.87-5.42,0-1.31.44-2.5,1.3-3.58.87-1.09,1.96-1.63,3.26-1.63s2.35.54,3.15,1.63c.8,1.09,1.2,2.28,1.2,3.58,0,7.66-1.27,13.31-3.81,16.93-2.53,3.62-5.39,5.43-8.57,5.43h0Zm-62.74-47.76c1.88,1.88,3.33,2.82,4.34,2.82,1.3,0,2.39-1.45,3.26-4.34,1.74-5.5,2.6-12.67,2.6-21.49l-.21-10.2c-4.34,1.59-7.82,3.55-10.42,5.87-2.61,2.31-4.34,5.28-5.21,8.9-.44,1.45-.66,2.97-.66,4.56,0,4.77,2.1,9.41,6.3,13.89h0Zm86.18,11.73c-4.78,0-8.5-1.38-11.18-4.12-2.68-2.75-4.31-6.37-4.88-10.85-.29-3.76-.44-6.37-.44-7.82,0-5.94.86-11.5,2.6-16.71,1.74-5.21,4.41-10.56,8.03-16.06,3.91-5.64,9.05-8.47,15.41-8.47,2.9,0,5.14.73,6.73,2.17,1.59,1.45,2.39,3.47,2.39,6.07,0,1.02-.07,1.81-.21,2.39-1.16,7.23-4.77,14.25-10.85,21.05-2.89,3.76-5.29,6.3-7.17,7.6-3.33,2.17-4.99,5.13-4.99,8.9,0,1.88.36,4.12,1.09,6.73.43,1.59,1.95,2.39,4.56,2.39,2.31,0,4.77-.58,7.37-1.74,2.61-1.16,4.7-2.61,6.29-4.34,2.9-3.62,5.14-7.2,6.73-10.74,1.59-3.54,3.4-8.36,5.43-14.44,1.59-4.34,2.53-6.87,2.82-7.6.28-.87.75-2.17,1.41-3.91.65-1.74,1.27-3.18,1.84-4.34.44-1.16,1.31-1.67,2.61-1.52.86.29,1.3.8,1.3,1.52,0,.57-.15,1.16-.44,1.74-5.21,13.31-9.19,23.3-11.93,29.96-2.17,4.92-4.13,8.61-5.87,11.07-1.59,2.46-4.09,4.93-7.49,7.38-3.4,2.46-7.13,3.69-11.18,3.69h0Zm-4.78-25.4c8.54-6.36,14.76-14.33,18.67-23.87.58-1.31.86-2.9.86-4.78,0-1.45-.07-2.53-.21-3.25-.15-1.31-.65-2.32-1.52-3.04-.87-.72-1.88-1.08-3.04-1.08-.86,0-1.74.21-2.6.65-2.03.86-3.48,2.31-4.34,4.34-3.33,8.11-5.94,18.45-7.82,31.04h0Zm54.06,24.97c-4.34-1.16-7.09-4.7-8.25-10.64-.73-3.33-1.09-7.24-1.09-11.72,0-1.74.15-4.49.44-8.25l.65-5.22c1.01-6.95,1.74-11.28,2.17-13.02.29-1.16.44-2.03.44-2.61,0-1.74-.86-2.82-2.6-3.26-1.16-.28-2.17-.65-3.04-1.08l-1.51,3.9c-.29.87-.76,2.17-1.41,3.91-.65,1.74-1.27,3.18-1.85,4.34-.44,1.16-1.3,1.66-2.6,1.52-.87-.28-1.31-.8-1.31-1.52,0-.58.15-1.16.44-1.74l3.47-8.9,1.3-3.25c-3.33-1.74-5.97-3.94-7.92-6.62-1.95-2.68-2.93-5.54-2.93-8.58s1.02-5.79,3.04-8.68c1.88-1.88,4.48-2.82,7.81-2.82,1.88,0,3.76.36,5.65,1.09,2.03,1.01,3.04,3.47,3.04,7.38,0,4.63-1.16,9.55-3.47,14.76l12.16,4.99c1.16.58,1.84,1.45,2.06,2.61.21,1.16.33,2.31.33,3.47v2.17c.29,4.19,0,10.2-.87,18.01-.14,1.16-.36,3.08-.65,5.76-.29,2.68-.44,5.1-.44,7.27,0,6.95,1.31,10.42,3.91,10.42,1.02,0,2.1-.51,3.26-1.52,4.34-5.78,8.1-13.02,11.29-21.71.87-2.02,2.03-5.06,3.47-9.11l2.39-6.52c.29-.87.76-2.17,1.41-3.91.65-1.74,1.27-3.18,1.85-4.34.43-1.16,1.3-1.67,2.6-1.52.87.29,1.3.8,1.3,1.52,0,.57-.15,1.16-.43,1.74-4.05,10.42-7.17,18.24-9.34,23.45l-2.6,6.51c-2.61,5.21-4.2,8.32-4.78,9.33l-3.25,6.3c-1.45,2.46-2.93,4.13-4.46,4.99-1.51.87-3.29,1.3-5.31,1.3l-4.34-.21h0Zm-12.81-62.3c.86-1.88,1.63-4.23,2.28-7.06s.98-5.24.98-7.27c0-1.3-.07-2.17-.21-2.6-.15-.73-.54-1.31-1.2-1.74-.65-.43-1.4-.66-2.28-.66-1.15.29-2.24,1.45-3.26,3.48-1.01,2.02-1.52,4.27-1.52,6.72,0,4.2,1.74,7.24,5.21,9.12h0Zm49.71,62.74c-4.78,0-8.5-1.38-11.18-4.12-2.68-2.75-4.31-6.37-4.88-10.85-.29-3.76-.44-6.37-.44-7.82,0-5.94.86-11.5,2.6-16.71,1.74-5.21,4.41-10.56,8.03-16.06,3.91-5.64,9.05-8.47,15.41-8.47,2.9,0,5.14.73,6.73,2.17,1.59,1.45,2.39,3.47,2.39,6.07,0,1.02-.07,1.81-.21,2.39-1.16,7.23-4.77,14.25-10.85,21.05-2.89,3.76-5.29,6.3-7.17,7.6-3.33,2.17-4.99,5.13-4.99,8.9,0,1.88.36,4.12,1.09,6.73.43,1.59,1.95,2.39,4.56,2.39,2.31,0,4.77-.58,7.37-1.74,2.61-1.16,4.7-2.61,6.29-4.34,2.9-3.62,5.14-7.2,6.73-10.74,1.59-3.54,3.4-8.36,5.43-14.44,1.59-4.34,2.53-6.87,2.82-7.6.28-.87.75-2.17,1.41-3.91.65-1.74,1.27-3.18,1.84-4.34.44-1.16,1.31-1.67,2.61-1.52.86.29,1.3.8,1.3,1.52,0,.57-.14,1.16-.44,1.74-5.21,13.31-9.19,23.3-11.93,29.96-2.17,4.92-4.13,8.61-5.87,11.07-1.59,2.46-4.09,4.93-7.49,7.38-3.4,2.46-7.13,3.69-11.18,3.69h0Zm-4.78-25.4c8.54-6.36,14.76-14.33,18.67-23.87.58-1.31.86-2.9.86-4.78,0-1.45-.07-2.53-.21-3.25-.15-1.31-.65-2.32-1.52-3.04-.86-.72-1.88-1.08-3.04-1.08-.86,0-1.74.21-2.6.65-2.03.86-3.48,2.31-4.34,4.34-3.33,8.11-5.94,18.45-7.82,31.04h0Z"/>
</svg>